<svg width="100%" height="100%" viewBox="0 0 1000 561" version="1.1" xmlns="http://www.w3.org/2000/svg" xmlns:xlink="http://www.w3.org/1999/xlink" xml:space="preserve" style="fill-rule:evenodd;clip-rule:evenodd;stroke-linejoin:round;stroke-miterlimit:1.41421;"><g id="battery-icon" class="battery-plugged"><path id="Battery" d="M970,148L915,148L915,85C915,38 877,0 830,0L85,0C38,0 0,38 0,85L0,476C0,522 38,561 85,561L830,561C877,561 915,522 915,476L915,413L970,413C986,413 1000,400 1000,384L1000,178C1000,161 986,148 970,148ZM803,448L112,448L112,112L803,112L803,448Z" style="fill-rule:nonzero;" /><g id="Power plugged in" transform="matrix(0.642172,0,0,0.642172,36.2031,163.625)"><path d="M963,231L845,231L845,133L963,133C983,133 1000,116 1000,96C1000,76 983,60 963,60L845,60L845,0L617,0C536,0 468,54 447,129L323,129L323,235L447,235C468,309 536,364 617,364L845,364L845,303L963,303C983,303 1000,287 1000,267C1000,247 983,231 963,231" style="fill-rule:nonzero;" /></g></g></svg>