<svg width="100%" height="100%" viewBox="0 0 1000 561" version="1.1" xmlns="http://www.w3.org/2000/svg" xmlns:xlink="http://www.w3.org/1999/xlink" xml:space="preserve" style="fill-rule:evenodd;clip-rule:evenodd;stroke-linejoin:round;stroke-miterlimit:1.41421;"><g id="battery-icon" class="battery-charging"><path id="Battery" d="M970,148L915,148L915,85C915,38 877,0 830,0L85,0C38,0 0,38 0,85L0,476C0,522 38,561 85,561L830,561C877,561 915,522 915,476L915,413L970,413C986,413 1000,400 1000,384L1000,178C1000,161 986,148 970,148ZM803,448L112,448L112,112L803,112L803,448Z" style="fill-rule:nonzero;" /><g id="Power charging" transform="matrix(1,0,0,1,-7,0)"><path d="M725,192L512,368L443,315L205,368L443,192L519,256L725,192Z" /></g></g></svg>